<svg id="livetype" xmlns="http://www.w3.org/2000/svg" viewBox="0 0 150 50"><style>.st0{fill:#a6a6a6}.st1{fill:#fff}</style><title>Download_on_the_App_Store_Badge_US-UK_RGB_blk_4SVG_092917</title><path class="st0" d="M138.1 0H9.4c-.8 0-1.7.1-2.5.2-.8.2-1.6.4-2.4.8-.7.4-1.4.9-2 1.5-.6.6-1.1 1.3-1.5 2-.4.8-.6 1.6-.8 2.4-.1.8-.2 1.7-.2 2.5v31.3c0 .8.1 1.7.2 2.5s.4 1.6.8 2.4c.4.7.9 1.4 1.5 2 .6.6 1.3 1.1 2 1.5.8.4 1.6.6 2.4.8.8 0 1.7.1 2.5.1h131.3c.8 0 1.7-.1 2.5-.2s1.6-.4 2.4-.8c.8-.4 1.4-.9 2-1.5.6-.6 1.1-1.3 1.5-2 .4-.7.6-1.6.8-2.4.1-.8.2-1.7.2-2.5V9.3c0-.8-.1-1.7-.2-2.5s-.4-1.6-.8-2.4c-.8-1.5-2-2.7-3.5-3.5-.8-.4-1.6-.6-2.4-.8-.8-.1-1.7-.2-2.5-.2h-1.2c-.5.1-1 .1-1.4.1z"/><path d="M10.6 48.9H9.5c-.8 0-1.6-.1-2.3-.2-.8-.1-1.5-.4-2.2-.7-.6-.3-1.2-.8-1.8-1.3-.5-.5-1-1.1-1.3-1.7-.3-.7-.6-1.4-.7-2.1-.1-.8-.2-1.6-.2-2.3V9.5c0-.8.1-1.6.2-2.3.2-.8.5-1.5.8-2.2.3-.6.8-1.2 1.3-1.7S4.4 2.3 5 2c.7-.3 1.4-.6 2.1-.7.8-.1 1.6-.2 2.4-.2h131c.8 0 1.6.1 2.3.2.7.1 1.4.4 2.1.7 1.3.7 2.4 1.7 3 3 .3.6.6 1.3.7 2.1.1.8.2 1.6.2 2.4v31.2c0 .8-.1 1.6-.2 2.3-.1.7-.3 1.4-.7 2.1-.3.6-.8 1.2-1.3 1.7s-1.1.9-1.8 1.3c-.7.3-1.4.6-2.1.7-.8.1-1.6.2-2.3.2h-2.5l-127.3-.1z"/><g id="_Group_"><g id="_Group_2"><g id="_Group_3"><path id="_Path_" class="st1" d="M31 25.4c0-2.1 1.1-4.1 3-5.2-1.1-1.6-3-2.6-5-2.7-2.1-.2-4.1 1.3-5.2 1.3-1.1 0-2.7-1.2-4.5-1.2-2.3.1-4.5 1.4-5.6 3.4-2.4 4.2-.6 10.3 1.7 13.7 1.2 1.7 2.5 3.5 4.3 3.4C21.4 38 22 37 24.1 37c2.1 0 2.7 1.1 4.5 1.1 1.9 0 3-1.7 4.2-3.3.8-1.2 1.5-2.5 1.9-3.9-2.2-1-3.6-3.1-3.7-5.5z"/><path id="_Path_2" class="st1" d="M27.6 15.3c1-1.2 1.5-2.8 1.4-4.4-1.6.2-3 .9-4 2.1-1 1.2-1.5 2.7-1.4 4.2 1.5 0 3-.7 4-1.9z"/></g></g><path class="st1" d="M53 33.9h-5.9l-1.4 4.2h-2.5l5.6-15.5h2.6L57 38.1h-2.6L53 33.9zM47.7 32h4.7l-2.3-6.8H50L47.7 32zm21.4.5c0 3.5-1.9 5.8-4.7 5.8-1.5.1-2.9-.7-3.6-2h-.1v5.6h-2.3V26.8h2.3v1.9c.7-1.3 2.1-2 3.6-2 2.9 0 4.8 2.3 4.8 5.8zm-2.4 0c0-2.3-1.2-3.8-3-3.8s-3 1.5-3 3.8 1.2 3.8 3 3.8c1.9 0 3-1.5 3-3.8zm14.9 0c0 3.5-1.9 5.8-4.7 5.8-1.5.1-2.9-.7-3.6-2h-.1v5.6h-2.3V26.8h2.3v1.9c.7-1.3 2.1-2 3.6-2 2.9 0 4.8 2.3 4.8 5.8zm-2.4 0c0-2.3-1.2-3.8-3-3.8s-3 1.5-3 3.8 1.2 3.8 3 3.8c1.9 0 3-1.5 3-3.8zm10.7 1.3c.2 1.5 1.7 2.5 3.7 2.5s3.4-1 3.4-2.4c0-1.2-.9-1.9-2.9-2.4l-2-.5c-2.9-.7-4.2-2-4.2-4.2 0-2.7 2.3-4.5 5.7-4.5 3.3 0 5.5 1.8 5.6 4.5h-2.4c-.1-1.5-1.4-2.5-3.3-2.5s-3.2.9-3.2 2.3c0 1.1.8 1.7 2.8 2.2l1.7.4c3.2.8 4.5 2 4.5 4.3 0 2.9-2.3 4.7-6 4.7-3.5 0-5.8-1.8-5.9-4.6l2.5.2zm14.6-9.7v2.7h2.2v1.8h-2.2v6.2c0 1 .4 1.4 1.4 1.4.3 0 .5 0 .8-.1v1.8c-.4.1-.9.1-1.3.1-2.3 0-3.2-.9-3.2-3.1v-6.5h-1.7v-1.8h1.7v-2.7h2.3zm3.4 8.4c0-3.6 2.1-5.8 5.4-5.8 3.3 0 5.4 2.2 5.4 5.8 0 3.6-2.1 5.8-5.4 5.8-3.3 0-5.4-2.3-5.4-5.8zm8.4 0c0-2.4-1.1-3.9-3-3.9s-3 1.5-3 3.9c0 2.5 1.1 3.9 3 3.9s3-1.5 3-3.9zm4.3-5.7h2.2v1.9h.1c.3-1.2 1.4-2.1 2.7-2 .3 0 .5 0 .8.1V29c-.3-.1-.7-.2-1-.1-1.3-.1-2.4 1-2.4 2.2v7.1h-2.3l-.1-11.4zm16.5 8c-.3 2.1-2.3 3.5-4.9 3.5-3.3 0-5.4-2.2-5.4-5.7s2.1-5.9 5.3-5.9c3.1 0 5.1 2.2 5.1 5.6v.7h-8v.1c-.1 1.6 1.1 3.1 2.7 3.2h.4c1.1.1 2.2-.5 2.6-1.6l2.2.1zm-7.9-3.4h5.7c.1-1.5-1.1-2.8-2.6-2.9h-.2c-1.6 0-2.9 1.3-2.9 2.9z"/></g><path class="st1" d="M47.4 10.9c1.8-.1 3.4 1.2 3.5 3.1v.7c0 2.4-1.3 3.8-3.5 3.8h-2.7V11h2.7zm-1.5 6.4h1.4c1.3.1 2.4-.9 2.5-2.2v-.5c.2-1.3-.7-2.5-2-2.6h-1.9v5.3zm6.3-1.7c-.1-1.5.9-2.8 2.4-2.9 1.5-.1 2.8.9 2.9 2.4v.5c.1 1.5-.9 2.8-2.4 2.9-1.5.1-2.8-.9-2.9-2.4v-.5zm4.2 0c0-1.2-.5-1.9-1.5-1.9s-1.5.7-1.5 1.9.5 1.9 1.5 1.9 1.5-.7 1.5-1.9zm8.2 2.8h-1.2l-1.2-4.1h-.1l-1.2 4.1h-1.1l-1.6-5.6h1.1l1 4.3h.1l1.2-4.3h1.1L64 17h.1l1-4.3h1.1l-1.6 5.7zm2.9-5.7h1.1v.9h.1c.3-.7 1-1.1 1.7-1 1-.1 1.9.7 2 1.7v4h-1.1V15c0-.9-.4-1.4-1.2-1.4-.7 0-1.3.5-1.4 1.2v3.5h-1.1l-.1-5.6zm6.6-2.2h1.1v7.8h-1.1v-7.8zm2.6 5.1c-.1-1.5.9-2.8 2.4-2.9 1.5-.1 2.8.9 2.9 2.4v.5c.1 1.5-.9 2.8-2.4 2.9-1.5.1-2.8-.9-2.9-2.4v-.5zm4.2 0c0-1.2-.5-1.9-1.5-1.9s-1.5.7-1.5 1.9.5 1.9 1.5 1.9 1.5-.7 1.5-1.9zm2.3 1.2c0-1 .8-1.6 2.1-1.7l1.5-.1v-.5c0-.6-.4-.9-1.2-.9-.6 0-1.1.2-1.2.6h-1.1c.1-1 1-1.6 2.3-1.6 1.4 0 2.2.7 2.2 1.9v3.8h-1.1v-.8h-.1c-.4.6-1 .9-1.7.9-.9.1-1.8-.6-1.9-1.5.2 0 .2-.1.2-.1zm3.7-.5v-.5l-1.4.1c-.8.1-1.1.3-1.1.8s.4.8 1 .8c.7.1 1.4-.4 1.5-1.2zm2.5-.7c0-1.8.9-2.9 2.3-2.9.7 0 1.4.4 1.7 1h.1v-3.1h1.1v7.8h-1.1v-.9h-.1c-.4.6-1 1-1.8 1-1.3 0-2.2-1.2-2.2-2.9zm1.2 0c0 1.2.6 1.9 1.5 1.9s1.5-.7 1.5-1.9-.6-1.9-1.5-1.9c-.9-.1-1.5.7-1.5 1.9zm8.7 0c-.1-1.5.9-2.8 2.4-2.9 1.5-.1 2.8.9 2.9 2.4v.5c.1 1.5-.9 2.8-2.4 2.9-1.5.1-2.8-.9-2.9-2.4v-.5zm4.2 0c0-1.2-.5-1.9-1.5-1.9s-1.5.7-1.5 1.9.5 1.9 1.5 1.9c.9 0 1.5-.7 1.5-1.9zm2.6-2.9h1.1v.9h.1c.3-.7 1-1.1 1.7-1 1-.1 1.9.7 2 1.7v4h-1.1V15c0-.9-.4-1.4-1.2-1.4-.7 0-1.3.5-1.4 1.2v3.5h-1.1v-5.6zm11.1-1.4v1.4h1.2v.9h-1.2v2.9c0 .6.2.8.8.8h.4v.9c-.2 0-.4.1-.6.1-1.2 0-1.7-.4-1.7-1.5v-3.2h-.9v-.9h.9v-1.4h1.1zm2.8-.8h1.1v3.1h.1c.3-.7 1-1.1 1.7-1 1-.1 1.9.7 2 1.8v3.9h-1.1V15c0-.9-.4-1.4-1.2-1.4-.7-.1-1.4.5-1.4 1.2v3.5H120v-7.8zm11.3 6.4c-.3 1.1-1.3 1.7-2.4 1.6-1.4 0-2.6-1.1-2.6-2.5v-.4c-.2-1.4.8-2.7 2.2-2.9h.4c1.6 0 2.5 1.1 2.5 2.8v.4h-4v.1c-.1.8.5 1.5 1.4 1.6h.1c.5.1 1.1-.2 1.3-.7h1.1zm-3.9-1.9h2.9c.1-.7-.5-1.4-1.3-1.5h-.1c-.8.1-1.5.7-1.5 1.5z" id="_Group_4"/></svg>