<svg id="artwork" xmlns="http://www.w3.org/2000/svg" viewBox="0 0 168 50"><style>.st0{fill:#a6a6a6}.st1{stroke:#fff;stroke-width:.2;stroke-miterlimit:10}.st1,.st2{fill:#fff}.st3{fill:url(#SVGID_1_)}.st4{fill:url(#SVGID_2_)}.st5{fill:url(#SVGID_3_)}.st6{fill:url(#SVGID_4_)}.st7{opacity:.2}.st7,.st8,.st9{enable-background:new}.st8{opacity:.12}.st9{opacity:.25;fill:#fff}</style><path d="M161.8 50H6.2C2.8 50 0 47.2 0 43.7V6.2C0 2.8 2.8 0 6.2 0h155.6c3.4 0 6.2 2.8 6.2 6.2v37.5c0 3.5-2.8 6.3-6.2 6.3z"/><path class="st0" d="M161.8 1c2.9 0 5.2 2.4 5.2 5.3v37.5c0 2.9-2.3 5.3-5.2 5.3H6.2C3.3 49 1 46.6 1 43.8V6.3C1 3.4 3.3 1 6.2 1h155.6m0-1H6.2C2.8 0 0 2.8 0 6.3v37.5C0 47.2 2.8 50 6.2 50h155.6c3.4 0 6.2-2.8 6.2-6.2V6.3c0-3.5-2.8-6.3-6.2-6.3z"/><path class="st1" d="M59 12.8c0 1-.3 1.9-.9 2.5-.7.7-1.6 1.1-2.7 1.1s-2-.4-2.7-1.1c-.8-.8-1.1-1.7-1.1-2.8 0-1.1.4-2 1.1-2.8.8-.8 1.7-1.1 2.7-1.1.5 0 1 .1 1.5.3.5.2.9.5 1.2.8l-.7.7c-.5-.6-1.2-.9-2-.9s-1.5.3-2 .8c-.6.6-.9 1.3-.9 2.2 0 .9.3 1.6.9 2.2.6.6 1.3.8 2 .8.8 0 1.5-.3 2.1-.8.4-.4.6-.9.6-1.5h-2.7v-.9H59v.5zm5.7-3.1h-3.4V12h3.1v1h-3.1v2.4h3.4v.9h-4.4V8.8h4.4v.9zm4.1 6.6h-1V9.7h-2.1v-.9h5.1v.9h-2.1v6.6zm5.8 0V8.8h1v7.5h-1zm5.2 0h-1V9.7h-2.1v-.9h5.1v.9h-2.1v6.6zm11.8-1c-.7.8-1.6 1.1-2.7 1.1s-2-.4-2.7-1.1c-.7-.8-1.1-1.7-1.1-2.8s.4-2 1.1-2.8c.7-.8 1.6-1.1 2.7-1.1s2 .4 2.7 1.1c.7.8 1.1 1.7 1.1 2.8 0 1.1-.4 2-1.1 2.8zm-4.8-.6c.6.6 1.2.8 2 .8s1.5-.3 2-.8c.6-.6.8-1.3.8-2.2 0-.9-.3-1.6-.8-2.2-.6-.6-1.2-.8-2-.8s-1.5.3-2 .8c-.6.6-.8 1.3-.8 2.2 0 .9.3 1.6.8 2.2zm7.2 1.6V8.8h1.2l3.6 5.8V8.8h1v7.5h-1L95 10.1v6.1h-1z"/><path class="st2" d="M84.8 27.2c-2.9 0-5.3 2.2-5.3 5.3 0 3.1 2.4 5.3 5.3 5.3s5.3-2.3 5.3-5.3c0-3.1-2.4-5.3-5.3-5.3zm0 8.5c-1.6 0-3-1.3-3-3.2 0-1.9 1.4-3.2 3-3.2s3 1.3 3 3.2c0 1.9-1.4 3.2-3 3.2zm-11.6-8.5c-2.9 0-5.3 2.2-5.3 5.3 0 3.1 2.4 5.3 5.3 5.3s5.3-2.3 5.3-5.3c0-3.1-2.4-5.3-5.3-5.3zm0 8.5c-1.6 0-3-1.3-3-3.2 0-1.9 1.4-3.2 3-3.2s3 1.3 3 3.2c0 1.9-1.4 3.2-3 3.2zm-13.8-6.9v2.3h5.4c-.2 1.3-.6 2.2-1.2 2.8-.8.8-2 1.7-4.2 1.7-3.3 0-5.9-2.7-5.9-6s2.6-6 5.9-6c1.8 0 3.1.7 4 1.6l1.6-1.6c-1.3-1.3-3.1-2.3-5.6-2.3-4.5 0-8.3 3.7-8.3 8.3 0 4.6 3.8 8.3 8.3 8.3 2.4 0 4.3-.8 5.7-2.3 1.5-1.5 1.9-3.6 1.9-5.3 0-.5 0-1-.1-1.4h-7.5zm56.4 1.8c-.4-1.2-1.8-3.4-4.5-3.4s-5 2.2-5 5.3c0 3 2.2 5.3 5.3 5.3 2.4 0 3.8-1.5 4.4-2.4l-1.8-1.2c-.6.9-1.4 1.5-2.6 1.5-1.2 0-2-.5-2.6-1.6l7.1-2.9-.3-.6zm-7.2 1.7c-.1-2.1 1.6-3.1 2.8-3.1.9 0 1.7.5 2 1.1l-4.8 2zm-5.8 5.2h2.3V21.9h-2.3v15.6zM99 28.4c-.6-.6-1.6-1.2-2.9-1.2-2.6 0-5.1 2.3-5.1 5.3s2.4 5.3 5.1 5.3c1.3 0 2.3-.6 2.8-1.2h.1v.8c0 2-1.1 3.1-2.8 3.1-1.4 0-2.3-1-2.7-1.9l-2 .8c.6 1.4 2.1 3.1 4.7 3.1 2.7 0 5-1.6 5-5.5v-9.5H99v.9zm-2.6 7.3c-1.6 0-2.9-1.3-2.9-3.2 0-1.9 1.3-3.2 2.9-3.2 1.6 0 2.8 1.4 2.8 3.2 0 1.9-1.3 3.2-2.8 3.2zm30.3-13.8h-5.6v15.6h2.3v-5.9h3.2c2.6 0 5.1-1.9 5.1-4.9s-2.4-4.8-5-4.8zm.1 7.5h-3.3V24h3.3c1.7 0 2.7 1.4 2.7 2.7 0 1.2-1 2.7-2.7 2.7zm14.3-2.2c-1.7 0-3.4.7-4.1 2.4l2.1.9c.4-.9 1.3-1.1 2.1-1.1 1.2 0 2.4.7 2.4 2v.2c-.4-.2-1.3-.6-2.4-.6-2.2 0-4.5 1.2-4.5 3.5 0 2.1 1.8 3.4 3.9 3.4 1.6 0 2.4-.7 3-1.5h.1v1.2h2.2v-6c-.1-2.9-2.1-4.4-4.8-4.4zm-.3 8.5c-.8 0-1.8-.4-1.8-1.3 0-1.2 1.3-1.7 2.5-1.7 1 0 1.5.2 2.1.5-.2 1.5-1.4 2.5-2.8 2.5zm13.2-8.2l-2.7 6.8h-.1l-2.8-6.8H146l4.1 9.5-2.4 5.3h2.4l6.4-14.7H154zm-20.9 10h2.3V21.9h-2.3v15.6z"/><linearGradient id="SVGID_1_" gradientUnits="userSpaceOnUse" x1="27.191" y1="181.113" x2="6.213" y2="160.135" gradientTransform="matrix(1 0 0 -1 0 192)"><stop offset="0" stop-color="#00a0ff"/><stop offset=".007" stop-color="#00a1ff"/><stop offset=".26" stop-color="#00beff"/><stop offset=".512" stop-color="#00d2ff"/><stop offset=".76" stop-color="#00dfff"/><stop offset="1" stop-color="#00e3ff"/></linearGradient><path class="st3" d="M13 9.4c-.4.4-.6 1-.6 1.8v27.6c0 .8.2 1.4.6 1.8l.1.1 15.4-15.5v-.4L13 9.4z"/><linearGradient id="SVGID_2_" gradientUnits="userSpaceOnUse" x1="42.105" y1="166.998" x2="11.993" y2="166.998" gradientTransform="matrix(1 0 0 -1 0 192)"><stop offset="0" stop-color="#ffe000"/><stop offset=".409" stop-color="#ffbd00"/><stop offset=".775" stop-color="orange"/><stop offset="1" stop-color="#ff9c00"/></linearGradient><path class="st4" d="M33.6 30.3l-5.1-5.2v-.3l5.1-5.2.1.1 6.1 3.5c1.7 1 1.7 2.6 0 3.6l-6.1 3.5h-.1z"/><linearGradient id="SVGID_3_" gradientUnits="userSpaceOnUse" x1="30.901" y1="164.136" x2="2.516" y2="135.751" gradientTransform="matrix(1 0 0 -1 0 192)"><stop offset="0" stop-color="#ff3a44"/><stop offset="1" stop-color="#c31162"/></linearGradient><path class="st5" d="M33.8 30.3L28.5 25 13 40.6c.6.6 1.5.7 2.6.1l18.2-10.4"/><linearGradient id="SVGID_4_" gradientUnits="userSpaceOnUse" x1="9.038" y1="191.725" x2="21.713" y2="179.05" gradientTransform="matrix(1 0 0 -1 0 192)"><stop offset="0" stop-color="#32a071"/><stop offset=".069" stop-color="#2da771"/><stop offset=".476" stop-color="#15cf74"/><stop offset=".801" stop-color="#06e775"/><stop offset="1" stop-color="#00f076"/></linearGradient><path class="st6" d="M33.8 19.7L15.6 9.3c-1.1-.6-2-.5-2.6.1L28.5 25l5.3-5.3z"/><path class="st7" d="M33.6 30.2l-18 10.3c-1 .6-1.9.5-2.5 0l-.1.1.1.1c.6.5 1.5.6 2.5 0l18.2-10.4-.2-.1z"/><path class="st8" d="M13 40.4c-.4-.4-.6-1-.6-1.8v.2c0 .8.2 1.4.6 1.8v-.2zm26.8-13.8l-6.2 3.5.1.1 6.1-3.5c.9-.5 1.3-1.2 1.3-1.8 0 .7-.5 1.3-1.3 1.7z"/><path class="st9" d="M15.6 9.5l24.3 13.8c.8.4 1.2 1 1.3 1.6 0-.7-.4-1.3-1.3-1.8L15.6 9.3c-1.7-1-3.2-.2-3.2 1.8v.2c0-1.9 1.4-2.8 3.2-1.8z"/></svg>