<svg id="Layer_1" xmlns="http://www.w3.org/2000/svg" viewBox="0 0 20 20"><style>.st0{fill:#fff}.st1{fill:#666}</style><path class="st0" d="M0 0h20v20H0z"/><path class="st1" d="M5.1 3.4h9.8c.9 0 1.7.8 1.7 1.7v9.8c0 .9-.8 1.7-1.7 1.7H5.1c-.9 0-1.7-.8-1.7-1.7V5.1c0-.9.8-1.7 1.7-1.7zM13 4.9c-.3 0-.6.3-.6.6v1.4c0 .3.3.6.6.6h1.5c.3 0 .6-.3.6-.6V5.5c0-.3-.3-.6-.6-.6H13zM15.1 9h-1.2c.1.4.2.7.2 1.1 0 2.2-1.8 4-4.1 4s-4.1-1.8-4.1-4c0-.4.1-.8.2-1.1H4.9v5.6c0 .3.2.5.5.5h9.2c.3 0 .5-.2.5-.5V9zM10 7.4c-1.5 0-2.6 1.1-2.6 2.6 0 1.4 1.2 2.6 2.6 2.6 1.5 0 2.6-1.1 2.6-2.6.1-1.4-1.1-2.6-2.6-2.6z"/></svg>