<svg id="Layer_1" xmlns="http://www.w3.org/2000/svg" viewBox="0 0 40 20"><style>.st0{fill:#fff}</style><path class="st0" d="M12.4.9h17.2c.7 0 1.3.6 1.3 1.3 0 .7-.6 1.3-1.3 1.3H12.4c-.7 0-1.3-.6-1.3-1.3 0-.7.6-1.3 1.3-1.3zM6.6 6.2h26.2c.7 0 1.3.6 1.3 1.3s-.6 1.3-1.3 1.3H6.6c-.7 0-1.3-.6-1.3-1.3s.6-1.3 1.3-1.3zm22.3 13.1H2.5c-.7 0-1.3-.6-1.3-1.3 0-.7.6-1.3 1.3-1.3h26.4c.7 0 1.3.6 1.3 1.3 0 .8-.6 1.3-1.3 1.3zm8.8-5.3H14.4c-.7 0-1.3-.6-1.3-1.3s.6-1.3 1.3-1.3h23.3c.7 0 1.3.6 1.3 1.3s-.6 1.3-1.3 1.3z"/></svg>