<svg id="Layer_1" xmlns="http://www.w3.org/2000/svg" viewBox="0 0 145 20"><style>.st0{fill:#fff}</style><path class="st0" d="M106.3 16h-8.9v-4.4h7.2V8h-7.2V3.9h8.9V.5h-13v18.8h13zm17.2 0h-8.8v-4.4h7.1V8h-7.1V3.9h8.8V.5h-13v18.8h13zm8.2 3.3v-5l2.5-3.2 4.4 8.2h4.8v-.1L137 7.9l5.9-7.4V.4h-4.8l-6.4 8.4V.5h-4.2v18.8h4.2zM71.8 3.4L71.1.5h-4.3l2.9 11zm4.3 15.9l5-18.8h-4.2l-5 18.8zm8.5 0L89.5.5h-4.2l-4.9 18.8zm-25-11.2h-2.4c-1.1 0-2-.9-2-2s.9-2 2-2h1.5c1.1 0 2 .9 2 2h3.5C64.2 3 61.7.5 58.6.5h-1.5C54 .5 51.5 3 51.5 6.1s2.5 5.6 5.6 5.6h2.4c1.1 0 2 .9 2 2v.1c0 1.1-.9 2-2 2h-2.9c-.9 0-1.7-.6-2-1.5H51c.3 2.8 2.6 5 5.5 5h2.9c3.1 0 5.6-2.5 5.6-5.6v-.1c.1-3-2.4-5.5-5.4-5.5zM12.4.9h17.2c.7 0 1.3.6 1.3 1.3 0 .7-.6 1.3-1.3 1.3H12.4c-.7 0-1.3-.6-1.3-1.3 0-.7.6-1.3 1.3-1.3zM6.6 6.2h26.2c.7 0 1.3.6 1.3 1.3s-.6 1.3-1.3 1.3H6.6c-.7 0-1.3-.6-1.3-1.3s.6-1.3 1.3-1.3zm22.3 13.1H2.5c-.7 0-1.3-.6-1.3-1.3 0-.7.6-1.3 1.3-1.3h26.4c.7 0 1.3.6 1.3 1.3 0 .8-.6 1.3-1.3 1.3zm8.8-5.3H14.4c-.7 0-1.3-.6-1.3-1.3s.6-1.3 1.3-1.3h23.3c.7 0 1.3.6 1.3 1.3s-.6 1.3-1.3 1.3z"/></svg>