<svg id="Layer_1" xmlns="http://www.w3.org/2000/svg" viewBox="0 0 20 20"><style>.st0{fill:#fff}.st1{fill:#666}</style><path class="st0" d="M0 0h20v20H0z"/><path class="st1" d="M16.7 5.9c-.5.2-1 .4-1.6.4.6-.3 1-.9 1.2-1.5-.5.3-1.1.5-1.7.7-.5-.5-1.2-.9-2-.9-1.5 0-2.7 1.2-2.7 2.7 0 .2 0 .4.1.6-2.4-.1-4.4-1.2-5.7-2.8-.3.4-.4.9-.4 1.4 0 .9.5 1.8 1.2 2.3-.4 0-.9-.1-1.2-.3 0 1.3.9 2.4 2.2 2.7-.2.1-.5.1-.7.1h-.5c.3 1.1 1.4 1.9 2.6 1.9-.9.7-2.1 1.2-3.4 1.2h-.7c1.1.6 2.6 1 4.1 1 5 0 7.8-4.2 7.8-7.8v-.4c.5-.3 1-.8 1.4-1.3z"/></svg>